{
	"patcher" : 	{
		"fileversion" : 1,
		"appversion" : 		{
			"major" : 6,
			"minor" : 1,
			"revision" : 7,
			"architecture" : "x86"
		}
,
		"rect" : [ 25.0, 69.0, 640.0, 480.0 ],
		"bglocked" : 0,
		"openinpresentation" : 0,
		"default_fontsize" : 12.0,
		"default_fontface" : 0,
		"default_fontname" : "Arial",
		"gridonopen" : 0,
		"gridsize" : [ 15.0, 15.0 ],
		"gridsnaponopen" : 0,
		"statusbarvisible" : 2,
		"toolbarvisible" : 1,
		"boxanimatetime" : 200,
		"imprint" : 0,
		"enablehscroll" : 1,
		"enablevscroll" : 1,
		"devicewidth" : 0.0,
		"description" : "",
		"digest" : "",
		"tags" : "",
		"boxes" : [ 			{
				"box" : 				{
					"id" : "obj-6",
					"maxclass" : "dial",
					"numinlets" : 1,
					"numoutlets" : 1,
					"outlettype" : [ "float" ],
					"parameter_enable" : 0,
					"patching_rect" : [ 194.0, 80.0, 40.0, 40.0 ],
					"presentation_rect" : [ 340.0, 46.0, 0.0, 0.0 ]
				}

			}
, 			{
				"box" : 				{
					"fontname" : "Arial",
					"fontsize" : 12.0,
					"id" : "obj-7",
					"maxclass" : "newobj",
					"numinlets" : 6,
					"numoutlets" : 1,
					"outlettype" : [ "" ],
					"patching_rect" : [ 194.0, 141.0, 106.0, 20.0 ],
					"text" : "scale 0 127 -0.3 6"
				}

			}
, 			{
				"box" : 				{
					"id" : "obj-5",
					"maxclass" : "dial",
					"numinlets" : 1,
					"numoutlets" : 1,
					"outlettype" : [ "float" ],
					"parameter_enable" : 0,
					"patching_rect" : [ 75.0, 80.0, 40.0, 40.0 ]
				}

			}
, 			{
				"box" : 				{
					"fontname" : "Arial",
					"fontsize" : 12.0,
					"id" : "obj-4",
					"maxclass" : "newobj",
					"numinlets" : 6,
					"numoutlets" : 1,
					"outlettype" : [ "" ],
					"patching_rect" : [ 75.0, 141.0, 119.0, 20.0 ],
					"text" : "scale 0 127 35 1200"
				}

			}
, 			{
				"box" : 				{
					"fontname" : "Arial",
					"fontsize" : 13.0,
					"id" : "obj-72",
					"maxclass" : "flonum",
					"numinlets" : 1,
					"numoutlets" : 2,
					"outlettype" : [ "float", "bang" ],
					"parameter_enable" : 0,
					"patching_rect" : [ 245.0, 166.0, 55.0, 21.0 ]
				}

			}
, 			{
				"box" : 				{
					"fontname" : "Arial",
					"fontsize" : 13.0,
					"id" : "obj-74",
					"maxclass" : "flonum",
					"numinlets" : 1,
					"numoutlets" : 2,
					"outlettype" : [ "float", "bang" ],
					"parameter_enable" : 0,
					"patching_rect" : [ 166.0, 166.0, 55.0, 21.0 ]
				}

			}
, 			{
				"box" : 				{
					"fontname" : "Arial",
					"fontsize" : 13.0,
					"id" : "obj-75",
					"maxclass" : "flonum",
					"numinlets" : 1,
					"numoutlets" : 2,
					"outlettype" : [ "float", "bang" ],
					"parameter_enable" : 0,
					"patching_rect" : [ 75.0, 166.0, 57.0, 21.0 ]
				}

			}
, 			{
				"box" : 				{
					"autoout" : 1,
					"bgcolor" : [ 0.913725, 0.913725, 1.0, 1.0 ],
					"bwidthcolor" : [ 0.462745, 0.47451, 0.65098, 1.0 ],
					"domain" : [ 0.0, 22050.0 ],
					"fgcolor" : [ 0.756863, 0.756863, 1.0, 1.0 ],
					"fontname" : "Arial",
					"fontsize" : 12.0,
					"hbwidthcolor" : [ 0.823529, 0.290196, 0.211765, 1.0 ],
					"hcurvecolor" : [ 1.0, 0.086275, 0.086275, 1.0 ],
					"id" : "obj-81",
					"markercolor" : [ 0.509804, 0.509804, 0.509804, 1.0 ],
					"maxclass" : "filtergraph~",
					"nfilters" : 1,
					"numinlets" : 8,
					"numoutlets" : 7,
					"outlettype" : [ "list", "float", "float", "float", "float", "list", "int" ],
					"parameter_enable" : 0,
					"patching_rect" : [ 67.0, 189.5, 237.0, 76.0 ],
					"setfilter" : [ 0, 5, 0, 0, 0, 35.0, 1.088976, 3.0, 0.0001, 22050.0, 0.0001, 16.0, 0.5, 25.0 ]
				}

			}
 ],
		"lines" : [ 			{
				"patchline" : 				{
					"destination" : [ "obj-75", 0 ],
					"disabled" : 0,
					"hidden" : 0,
					"source" : [ "obj-4", 0 ]
				}

			}
, 			{
				"patchline" : 				{
					"destination" : [ "obj-4", 0 ],
					"disabled" : 0,
					"hidden" : 0,
					"source" : [ "obj-5", 0 ]
				}

			}
, 			{
				"patchline" : 				{
					"destination" : [ "obj-7", 0 ],
					"disabled" : 0,
					"hidden" : 0,
					"source" : [ "obj-6", 0 ]
				}

			}
, 			{
				"patchline" : 				{
					"destination" : [ "obj-74", 0 ],
					"disabled" : 0,
					"hidden" : 0,
					"source" : [ "obj-7", 0 ]
				}

			}
, 			{
				"patchline" : 				{
					"destination" : [ "obj-81", 7 ],
					"disabled" : 0,
					"hidden" : 0,
					"source" : [ "obj-72", 0 ]
				}

			}
, 			{
				"patchline" : 				{
					"destination" : [ "obj-81", 6 ],
					"disabled" : 0,
					"hidden" : 0,
					"source" : [ "obj-74", 0 ]
				}

			}
, 			{
				"patchline" : 				{
					"destination" : [ "obj-81", 5 ],
					"disabled" : 0,
					"hidden" : 0,
					"source" : [ "obj-75", 0 ]
				}

			}
 ],
		"dependency_cache" : [  ]
	}

}
